<svg width="320" height="80" viewBox="0 0 320 80" fill="none" xmlns="http://www.w3.org/2000/svg">
  <defs>
    <linearGradient id="lockupBg" x1="8" y1="8" x2="72" y2="72" gradientUnits="userSpaceOnUse">
      <stop offset="0" stop-color="#1f4f8f" />
      <stop offset="1" stop-color="#143768" />
    </linearGradient>
    <linearGradient id="lockupAccent" x1="16" y1="64" x2="72" y2="24" gradientUnits="userSpaceOnUse">
      <stop offset="0" stop-color="#fbbf24" />
      <stop offset="1" stop-color="#f59e0b" />
    </linearGradient>
  </defs>

  <rect x="8" y="8" width="64" height="64" rx="18" fill="url(#lockupBg)" />
  <g fill="#ffffff">
    <rect x="24" y="22" width="7" height="36" rx="3.5" />
    <rect x="24" y="22" width="20" height="7" rx="3.5" />
    <rect x="24" y="51" width="20" height="7" rx="3.5" />
    <rect x="41" y="22" width="7" height="36" rx="3.5" />
    <rect x="55" y="22" width="7" height="36" rx="3.5" />
    <rect x="41" y="37" width="21" height="7" rx="3.5" />
  </g>
  <path d="M22 58c12 7 30 7 41-7" stroke="url(#lockupAccent)" stroke-width="7" stroke-linecap="round" />
  <circle cx="60" cy="31" r="5" fill="#fbbf24" />

  <text x="90" y="48" fill="#1f4f8f" font-size="30" font-weight="700" font-family="Inter, ui-sans-serif, system-ui, -apple-system, Segoe UI, Roboto, Arial">Impact</text>
  <text x="188" y="48" fill="#475569" font-size="30" font-weight="600" font-family="Inter, ui-sans-serif, system-ui, -apple-system, Segoe UI, Roboto, Arial">Store</text>
  <path d="M90 58h188" stroke="#fbbf24" stroke-width="6" stroke-linecap="round" />
</svg>
